{
  "accessors": [
    {
      "bufferView": 2,
      "componentType": 5126,
      "count": 164,
      "max": [
        -1.5721921920776367,
        65.55255126953125,
        0.5401754379272461
      ],
      "min": [
        -7.31641960144043,
        59.73530960083008,
        -5.284620761871338
      ],
      "type": "VEC3"
    },
    {
      "bufferView": 2,
      "byteOffset": 1968,
      "componentType": 5126,
      "count": 164,
      "max": [
        0.9588948488235474,
        0.9501623511314392,
        0.9628131985664368
      ],
      "min": [
        -0.9700462222099304,
        -0.9315040111541748,
        -0.979307234287262
      ],
      "type": "VEC3"
    },
    {
      "bufferView": 1,
      "componentType": 5126,
      "count": 164,
      "max": [
        0.988678514957428,
        0.3616546094417572
      ],
      "min": [
        0.4209330379962921,
        0.0063340924680233
      ],
      "type": "VEC2"
    },
    {
      "bufferView": 0,
      "componentType": 5125,
      "count": 288,
      "type": "SCALAR"
    },
    {
      "bufferView": 2,
      "byteOffset": 3936,
      "componentType": 5126,
      "count": 164,
      "max": [
        2.8090016841888428,
        63.18305206298828,
        7.833344459533691
      ],
      "min": [
        -18.512901306152344,
        41.89955139160156,
        -12.446516036987305
      ],
      "type": "VEC3"
    },
    {
      "bufferView": 2,
      "byteOffset": 5904,
      "componentType": 5126,
      "count": 164,
      "max": [
        0.9754409790039063,
        0.9936642646789551,
        0.9954853653907776
      ],
      "min": [
        -0.9754409790039063,
        -0.9936640858650208,
        -0.9954853057861328
      ],
      "type": "VEC3"
    },
    {
      "bufferView": 1,
      "byteOffset": 1312,
      "componentType": 5126,
      "count": 164,
      "max": [
        0.7724360823631287,
        0.9087858200073242
      ],
      "min": [
        0.0,
        0.1518574059009552
      ],
      "type": "VEC2"
    },
    {
      "bufferView": 0,
      "byteOffset": 1152,
      "componentType": 5125,
      "count": 288,
      "type": "SCALAR"
    },
    {
      "bufferView": 2,
      "byteOffset": 7872,
      "componentType": 5126,
      "count": 162,
      "max": [
        12.280867576599121,
        62.0946044921875,
        4.551898956298828
      ],
      "min": [
        -1.3693833351135254,
        48.698448181152344,
        -8.612218856811523
      ],
      "type": "VEC3"
    },
    {
      "bufferView": 2,
      "byteOffset": 9816,
      "componentType": 5126,
      "count": 162,
      "max": [
        0.9087879061698914,
        0.9559620022773743,
        0.9717777967453003
      ],
      "min": [
        -0.9087880253791809,
        -0.9559621214866638,
        -0.9717778563499451
      ],
      "type": "VEC3"
    },
    {
      "bufferView": 1,
      "byteOffset": 2624,
      "componentType": 5126,
      "count": 162,
      "max": [
        0.9829806685447693,
        0.23542767763137817
      ],
      "min": [
        0.0,
        0.006332039833068848
      ],
      "type": "VEC2"
    },
    {
      "bufferView": 0,
      "byteOffset": 2304,
      "componentType": 5125,
      "count": 282,
      "type": "SCALAR"
    },
    {
      "bufferView": 2,
      "byteOffset": 11760,
      "componentType": 5126,
      "count": 162,
      "max": [
        14.530332565307617,
        51.38337326049805,
        11.671713829040527
      ],
      "min": [
        -2.572741985321045,
        33.630889892578125,
        -6.238194465637207
      ],
      "type": "VEC3"
    },
    {
      "bufferView": 2,
      "byteOffset": 13704,
      "componentType": 5126,
      "count": 162,
      "max": [
        0.9957833886146545,
        0.9958051443099976,
        0.9757164716720581
      ],
      "min": [
        -0.9957833886146545,
        -0.9958048462867737,
        -0.9757164120674133
      ],
      "type": "VEC3"
    },
    {
      "bufferView": 1,
      "byteOffset": 3920,
      "componentType": 5126,
      "count": 162,
      "max": [
        0.5393343567848206,
        0.35611310601234436
      ],
      "min": [
        0.07607221603393555,
        0.006331205368041992
      ],
      "type": "VEC2"
    },
    {
      "bufferView": 0,
      "byteOffset": 3432,
      "componentType": 5125,
      "count": 282,
      "type": "SCALAR"
    },
    {
      "bufferView": 2,
      "byteOffset": 15648,
      "componentType": 5126,
      "count": 164,
      "max": [
        36.501182556152344,
        71.56705474853516,
        26.571849822998047
      ],
      "min": [
        4.951251029968262,
        41.021148681640625,
        -6.7637763023376465
      ],
      "type": "VEC3"
    },
    {
      "bufferView": 2,
      "byteOffset": 17616,
      "componentType": 5126,
      "count": 164,
      "max": [
        0.9959236979484558,
        0.9875079989433289,
        0.9654764533042908
      ],
      "min": [
        -0.9996381998062134,
        -0.9976848363876343,
        -0.9363839626312256
      ],
      "type": "VEC3"
    },
    {
      "bufferView": 1,
      "byteOffset": 5216,
      "componentType": 5126,
      "count": 164,
      "max": [
        0.9925497174263,
        0.5945987701416016
      ],
      "min": [
        0.2180737406015396,
        0.0063288286328315735
      ],
      "type": "VEC2"
    },
    {
      "bufferView": 0,
      "byteOffset": 4560,
      "componentType": 5125,
      "count": 288,
      "type": "SCALAR"
    },
    {
      "bufferView": 2,
      "byteOffset": 19584,
      "componentType": 5126,
      "count": 163,
      "max": [
        15.520631790161133,
        39.507259368896484,
        9.014067649841309
      ],
      "min": [
        9.101509094238281,
        32.85027313232422,
        2.410916328430176
      ],
      "type": "VEC3"
    },
    {
      "bufferView": 2,
      "byteOffset": 21540,
      "componentType": 5126,
      "count": 163,
      "max": [
        0.981719970703125,
        0.9766966104507446,
        0.945654571056366
      ],
      "min": [
        -0.981719970703125,
        -0.9766963720321655,
        -0.9456542730331421
      ],
      "type": "VEC3"
    },
    {
      "bufferView": 1,
      "byteOffset": 6528,
      "componentType": 5126,
      "count": 163,
      "max": [
        0.8036798238754272,
        0.21867823600769043
      ],
      "min": [
        0.1977878212928772,
        0.006326735019683838
      ],
      "type": "VEC2"
    },
    {
      "bufferView": 0,
      "byteOffset": 5712,
      "componentType": 5125,
      "count": 285,
      "type": "SCALAR"
    },
    {
      "bufferView": 2,
      "byteOffset": 23496,
      "componentType": 5126,
      "count": 150,
      "max": [
        24.051939010620117,
        50.700748443603516,
        12.440468788146973
      ],
      "min": [
        -12.37299919128418,
        1.079624891281128,
        -4.359951972961426
      ],
      "type": "VEC3"
    },
    {
      "bufferView": 2,
      "byteOffset": 25296,
      "componentType": 5126,
      "count": 150,
      "max": [
        0.9182883501052856,
        1.0,
        0.9328609108924866
      ],
      "min": [
        -0.9182883501052856,
        -1.0,
        -0.9232372641563416
      ],
      "type": "VEC3"
    },
    {
      "bufferView": 1,
      "byteOffset": 7832,
      "componentType": 5126,
      "count": 150,
      "max": [
        0.6145103573799133,
        1.0
      ],
      "min": [
        0.0,
        1.4172690798730514e-15
      ],
      "type": "VEC2"
    },
    {
      "bufferView": 0,
      "byteOffset": 6852,
      "componentType": 5125,
      "count": 228,
      "type": "SCALAR"
    }
  ],
  "asset": {
    "extras": {
      "author": "Vercion 3D (https://sketchfab.com/Vercion3D)",
      "license": "CC-BY-4.0 (http://creativecommons.org/licenses/by/4.0/)",
      "source": "https://sketchfab.com/3d-models/3d-low-poly-tree-3d-model-game-ready-model-13603cb1253244cba62cafe10fe77725",
      "title": "3D Low Poly Tree 3D Model - Game Ready model"
    },
    "generator": "Sketchfab-15.42.0",
    "version": "2.0"
  },
  "bufferViews": [
    {
      "buffer": 0,
      "byteLength": 7764,
      "name": "floatBufferViews",
      "target": 34963
    },
    {
      "buffer": 0,
      "byteLength": 9032,
      "byteOffset": 7764,
      "byteStride": 8,
      "name": "floatBufferViews",
      "target": 34962
    },
    {
      "buffer": 0,
      "byteLength": 27096,
      "byteOffset": 16796,
      "byteStride": 12,
      "name": "floatBufferViews",
      "target": 34962
    }
  ],
  "buffers": [
    {
      "byteLength": 43892,
      "uri": "scene.bin"
    }
  ],
  "materials": [
    {
      "doubleSided": true,
      "name": "Green_Leaves",
      "pbrMetallicRoughness": {
        "baseColorFactor": [
          0.00604787,
          1.0,
          0.0193826,
          1.0
        ],
        "metallicFactor": 0.3
      }
    },
    {
      "doubleSided": true,
      "name": "Wood_Branch",
      "pbrMetallicRoughness": {
        "baseColorFactor": [
          0.42869,
          0.0886555,
          0.00560543,
          1.0
        ],
        "metallicFactor": 0.0,
        "roughnessFactor": 0.9672319335068021
      }
    }
  ],
  "meshes": [
    {
      "name": "polySurface1_Green Leaves_0",
      "primitives": [
        {
          "attributes": {
            "NORMAL": 1,
            "POSITION": 0,
            "TEXCOORD_0": 2
          },
          "indices": 3,
          "material": 0,
          "mode": 4
        }
      ]
    },
    {
      "name": "polySurface3_Green Leaves_0",
      "primitives": [
        {
          "attributes": {
            "NORMAL": 5,
            "POSITION": 4,
            "TEXCOORD_0": 6
          },
          "indices": 7,
          "material": 0,
          "mode": 4
        }
      ]
    },
    {
      "name": "polySurface5_Green Leaves_0",
      "primitives": [
        {
          "attributes": {
            "NORMAL": 9,
            "POSITION": 8,
            "TEXCOORD_0": 10
          },
          "indices": 11,
          "material": 0,
          "mode": 4
        }
      ]
    },
    {
      "name": "polySurface7_Green Leaves_0",
      "primitives": [
        {
          "attributes": {
            "NORMAL": 13,
            "POSITION": 12,
            "TEXCOORD_0": 14
          },
          "indices": 15,
          "material": 0,
          "mode": 4
        }
      ]
    },
    {
      "name": "polySurface9_Green Leaves_0",
      "primitives": [
        {
          "attributes": {
            "NORMAL": 17,
            "POSITION": 16,
            "TEXCOORD_0": 18
          },
          "indices": 19,
          "material": 0,
          "mode": 4
        }
      ]
    },
    {
      "name": "polySurface11_Green Leaves_0",
      "primitives": [
        {
          "attributes": {
            "NORMAL": 21,
            "POSITION": 20,
            "TEXCOORD_0": 22
          },
          "indices": 23,
          "material": 0,
          "mode": 4
        }
      ]
    },
    {
      "name": "Wood Branch_Wood Branch_0",
      "primitives": [
        {
          "attributes": {
            "NORMAL": 25,
            "POSITION": 24,
            "TEXCOORD_0": 26
          },
          "indices": 27,
          "material": 1,
          "mode": 4
        }
      ]
    }
  ],
  "nodes": [
    {
      "children": [
        1
      ],
      "matrix": [
        1.0,
        0.0,
        0.0,
        0.0,
        0.0,
        6.123232939436859e-17,
        1.0,
        0.0,
        0.0,
        -1.0,
        6.123232939436859e-17,
        0.0,
        0.0,
        0.0,
        0.0,
        1.0
      ],
      "name": "Sketchfab_model"
    },
    {
      "children": [
        2
      ],
      "matrix": [
        0.009999999776482582,
        0.0,
        0.0,
        0.0,
        0.0,
        -0.009999999776482582,
        0.0,
        0.0,
        0.0,
        0.0,
        -0.009999999776482582,
        0.0,
        0.0,
        0.0,
        0.0,
        1.0
      ],
      "name": "Low Poly Tree FBX.fbx"
    },
    {
      "children": [
        3
      ],
      "name": "RootNode"
    },
    {
      "children": [
        4,
        6
      ],
      "matrix": [
        1.6200000047683716,
        0.0,
        0.0,
        0.0,
        0.0,
        -2.6393150139163325e-07,
        1.6200000047683503,
        0.0,
        0.0,
        -1.6200000047683503,
        -2.6393150139163325e-07,
        0.0,
        0.0,
        0.0,
        0.0,
        1.0
      ],
      "name": "lowpoly_tree:Mesh"
    },
    {
      "children": [
        5
      ],
      "matrix": [
        1.0,
        0.0,
        0.0,
        0.0,
        0.0,
        1.0,
        -1.4210854715202e-14,
        0.0,
        0.0,
        1.4210854715202e-14,
        1.0,
        0.0,
        0.0,
        0.0,
        0.0,
        1.0
      ],
      "name": "polySurface1"
    },
    {
      "mesh": 0,
      "name": "polySurface1_Green Leaves_0"
    },
    {
      "children": [
        7,
        9
      ],
      "matrix": [
        1.0,
        0.0,
        0.0,
        0.0,
        0.0,
        1.0,
        -1.4210854715202e-14,
        0.0,
        0.0,
        1.4210854715202e-14,
        1.0,
        0.0,
        0.0,
        0.0,
        0.0,
        1.0
      ],
      "name": "polySurface2"
    },
    {
      "children": [
        8
      ],
      "matrix": [
        1.0,
        0.0,
        0.0,
        0.0,
        0.0,
        1.0,
        -1.4210854715202e-14,
        0.0,
        0.0,
        1.4210854715202e-14,
        1.0,
        0.0,
        0.0,
        0.0,
        0.0,
        1.0
      ],
      "name": "polySurface3"
    },
    {
      "mesh": 1,
      "name": "polySurface3_Green Leaves_0"
    },
    {
      "children": [
        10,
        12
      ],
      "matrix": [
        1.0,
        0.0,
        0.0,
        0.0,
        0.0,
        1.0,
        -1.4210854715202e-14,
        0.0,
        0.0,
        1.4210854715202e-14,
        1.0,
        0.0,
        0.0,
        0.0,
        0.0,
        1.0
      ],
      "name": "polySurface4"
    },
    {
      "children": [
        11
      ],
      "matrix": [
        1.0,
        0.0,
        0.0,
        0.0,
        0.0,
        1.0,
        -1.4210854688732221e-14,
        0.0,
        0.0,
        1.4210854688732221e-14,
        1.0,
        0.0,
        0.0,
        0.0,
        0.0,
        1.0
      ],
      "name": "polySurface5"
    },
    {
      "mesh": 2,
      "name": "polySurface5_Green Leaves_0"
    },
    {
      "children": [
        13,
        15
      ],
      "matrix": [
        1.0,
        0.0,
        0.0,
        0.0,
        0.0,
        1.0,
        -1.4210854688732221e-14,
        0.0,
        0.0,
        1.4210854688732221e-14,
        1.0,
        0.0,
        0.0,
        0.0,
        0.0,
        1.0
      ],
      "name": "polySurface6"
    },
    {
      "children": [
        14
      ],
      "matrix": [
        1.0,
        0.0,
        0.0,
        0.0,
        0.0,
        1.0,
        -1.4210854688732226e-14,
        0.0,
        0.0,
        1.4210854688732226e-14,
        1.0,
        0.0,
        0.0,
        0.0,
        0.0,
        1.0
      ],
      "name": "polySurface7"
    },
    {
      "mesh": 3,
      "name": "polySurface7_Green Leaves_0"
    },
    {
      "children": [
        16,
        18
      ],
      "matrix": [
        1.0,
        0.0,
        0.0,
        0.0,
        0.0,
        1.0,
        -1.4210854688732226e-14,
        0.0,
        0.0,
        1.4210854688732226e-14,
        1.0,
        0.0,
        0.0,
        0.0,
        0.0,
        1.0
      ],
      "name": "polySurface8"
    },
    {
      "children": [
        17
      ],
      "matrix": [
        1.0,
        0.0,
        0.0,
        0.0,
        0.0,
        1.0,
        -1.4210854688732221e-14,
        0.0,
        0.0,
        1.4210854688732221e-14,
        1.0,
        0.0,
        0.0,
        0.0,
        0.0,
        1.0
      ],
      "name": "polySurface9"
    },
    {
      "mesh": 4,
      "name": "polySurface9_Green Leaves_0"
    },
    {
      "children": [
        19,
        21
      ],
      "matrix": [
        1.0,
        0.0,
        0.0,
        0.0,
        0.0,
        1.0,
        -1.4210854688732221e-14,
        0.0,
        0.0,
        1.4210854688732221e-14,
        1.0,
        0.0,
        0.0,
        0.0,
        0.0,
        1.0
      ],
      "name": "polySurface10"
    },
    {
      "children": [
        20
      ],
      "matrix": [
        1.0,
        0.0,
        0.0,
        0.0,
        0.0,
        1.0,
        -1.4210854715202004e-14,
        0.0,
        0.0,
        1.4210854715202004e-14,
        1.0,
        0.0,
        0.0,
        0.0,
        0.0,
        1.0
      ],
      "name": "polySurface11"
    },
    {
      "mesh": 5,
      "name": "polySurface11_Green Leaves_0"
    },
    {
      "children": [
        22
      ],
      "matrix": [
        1.0,
        0.0,
        0.0,
        0.0,
        0.0,
        1.0,
        -1.4210854715202004e-14,
        0.0,
        0.0,
        1.4210854715202004e-14,
        1.0,
        0.0,
        0.0,
        0.0,
        0.0,
        1.0
      ],
      "name": "Wood Branch"
    },
    {
      "mesh": 6,
      "name": "Wood Branch_Wood Branch_0"
    }
  ],
  "scene": 0,
  "scenes": [
    {
      "name": "Sketchfab_Scene",
      "nodes": [
        0
      ]
    }
  ]
}
